<svg width="472" height="346" viewBox="0 0 472 346" fill="none" xmlns="http://www.w3.org/2000/svg">
<path d="M20.1214 0H0.814118C0.364493 0 0 0.364497 0 0.814122V345.186C0 345.635 0.364493 346 0.814117 346H20.1214C20.571 346 20.9355 345.635 20.9355 345.186V200.187C20.9355 199.981 21.0139 199.782 21.155 199.631L37.4426 182.213C37.5965 182.049 37.8118 181.955 38.0372 181.955H433.582C433.808 181.955 434.023 182.049 434.177 182.213L450.464 199.631C450.605 199.782 450.684 199.981 450.684 200.187V345.186C450.684 345.635 451.048 346 451.498 346H471.186C471.636 346 472 345.635 472 345.186V0.814118C472 0.364493 471.636 0 471.186 0H451.498C451.048 0 450.684 0.364493 450.684 0.814117V144.592C450.684 144.798 450.605 144.997 450.464 145.148L434.177 162.565C434.023 162.73 433.808 162.824 433.582 162.824H38.0372C37.8118 162.824 37.5965 162.73 37.4426 162.565L21.155 145.148C21.0139 144.997 20.9355 144.798 20.9355 144.592V0.814118C20.9355 0.364493 20.571 0 20.1214 0Z" fill="#00775B"/>
</svg>
